curl
version=1
nRows=328
nColumns=3
inDegrees=yes
endheader
time	r_shoulder_elev	r_elbow_flex
5.3600	17.743890	39.508631
5.3700	17.723330	39.335313
5.3800	17.705164	39.162358
5.3900	17.689262	38.989863
5.4000	17.675489	38.817920
5.4100	17.663702	38.646606
5.4200	17.653758	38.475985
5.4300	17.645506	38.306108
5.4400	17.638800	38.137006
5.4500	17.633488	37.968700
5.4600	17.629423	37.801198
5.4700	17.626460	37.634503
5.4800	17.624458	37.468614
5.4900	17.623280	37.303538
5.5000	17.622796	37.139291
5.5100	17.622882	36.975911
5.5200	17.623423	36.813461
5.5300	17.624313	36.652043
5.5400	17.625456	36.491806
5.5500	17.626767	36.332950
5.5600	17.628171	36.175746
5.5700	17.629609	36.020537
5.5800	17.631029	35.867751
5.5900	17.632398	35.717910
5.6000	17.633692	35.571640
5.6100	17.634903	35.429673
5.6200	17.636038	35.292863
5.6300	17.637116	35.162183
5.6400	17.638170	35.038736
5.6500	17.639247	34.923754
5.6600	17.640410	34.818601
5.6700	17.641731	34.724776
5.6800	17.643298	34.643907
5.6900	17.645209	34.577751
5.7000	17.647574	34.528185
5.7100	17.650514	34.497207
5.7200	17.654160	34.486915
5.7300	17.658651	34.499507
5.7400	17.664134	34.537263
5.7500	17.670763	34.602526
5.7600	17.678700	34.697694
5.7700	17.688108	34.825191
5.7800	17.699157	34.987454
5.7900	17.712017	35.186907
5.8000	17.726859	35.425937
5.8100	17.743855	35.706871
5.8200	17.763175	36.031947
5.8300	17.784985	36.403293
5.8400	17.809447	36.822894
5.8500	17.836718	37.292571
5.8600	17.866944	37.813953
5.8700	17.900266	38.388453
5.8800	17.936811	39.017243
5.8900	17.976696	39.701235
5.9000	18.020022	40.441062
5.9100	18.066877	41.237058
5.9200	18.117331	42.089247
5.9300	18.171437	42.997332
5.9400	18.229230	43.960687
5.9500	18.290725	44.978350
5.9600	18.355919	46.049027
5.9700	18.424791	47.171094
5.9800	18.497300	48.342603
5.9900	18.573387	49.561294
6.0000	18.652979	50.824614
6.0100	18.735986	52.129732
6.0200	18.822304	53.473570
6.0300	18.911818	54.852825
6.0400	19.004404	56.264007
6.0500	19.099928	57.703468
6.0600	19.198252	59.167447
6.0700	19.299232	60.652101
6.0800	19.402724	62.153555
6.0900	19.508580	63.667931
6.1000	19.616656	65.191398
6.1100	19.726805	66.720202
6.1200	19.838888	68.250704
6.1300	19.952764	69.779411
6.1400	20.068301	71.303008
6.1500	20.185367	72.818379
6.1600	20.303837	74.322630
6.1700	20.423590	75.813106
6.1800	20.544508	77.287404
6.1900	20.666480	78.743382
6.2000	20.789398	80.179162
6.2100	20.913159	81.593131
6.2200	21.037664	82.983940
6.2300	21.162818	84.350492
6.2400	21.288531	85.691938
6.2500	21.414717	87.007655
6.2600	21.541292	88.297237
6.2700	21.668177	89.560470
6.2800	21.795292	90.797316
6.2900	21.922562	92.007886
6.3000	22.049912	93.192418
6.3100	22.177265	94.351256
6.3200	22.304546	95.484819
6.3300	22.431677	96.593583
6.3400	22.558578	97.678051
6.3500	22.685166	98.738737
6.3600	22.811355	99.776136
6.3700	22.937051	100.790710
6.3800	23.062157	101.782867
6.3900	23.186570	102.752942
6.4000	23.310177	103.701191
6.4100	23.432861	104.627769
6.4200	23.554493	105.532731
6.4300	23.674938	106.416024
6.4400	23.794049	107.277482
6.4500	23.911670	108.116832
6.4600	24.027635	108.933696
6.4700	24.141765	109.727598
6.4800	24.253873	110.497977
6.4900	24.363759	111.244197
6.5000	24.471212	111.965565
6.5100	24.576012	112.661346
6.5200	24.677930	113.330780
6.5300	24.776729	113.973104
6.5400	24.872164	114.587570
6.5500	24.963988	115.173465
6.5600	25.051952	115.730133
6.5700	25.135808	116.256989
6.5800	25.215310	116.753543
6.5900	25.290224	117.219413
6.6000	25.360322	117.654340
6.6100	25.425395	118.058205
6.6200	25.485250	118.431032
6.6300	25.539716	118.773002
6.6400	25.588648	119.084459
6.6500	25.631928	119.365906
6.6600	25.669470	119.618012
6.6700	25.701222	119.841601
6.6800	25.727168	120.037653
6.6900	25.747328	120.207288
6.7000	25.761763	120.351758
6.7100	25.770571	120.472432
6.7200	25.773893	120.570782
6.7300	25.771908	120.648363
6.7400	25.764833	120.706800
6.7500	25.752923	120.747762
6.7600	25.736469	120.772951
6.7700	25.715796	120.784079
6.7800	25.691258	120.782847
6.7900	25.663236	120.770936
6.8000	25.632135	120.749980
6.8100	25.598381	120.721560
6.8200	25.562412	120.687185
6.8300	25.524678	120.648280
6.8400	25.485637	120.606180
6.8500	25.445746	120.562117
6.8600	25.405460	120.517213
6.8700	25.365223	120.472479
6.8800	25.325470	120.428809
6.8900	25.286617	120.386978
6.9000	25.249059	120.347640
6.9100	25.213166	120.311333
6.9200	25.179280	120.278478
6.9300	25.147711	120.249380
6.9400	25.118737	120.224237
6.9500	25.092598	120.203138
6.9600	25.069499	120.186072
6.9700	25.049606	120.172930
6.9800	25.033047	120.163514
6.9900	25.019914	120.157535
7.0000	25.010258	120.154629
7.0100	25.004097	120.154352
7.0200	25.001411	120.156192
7.0300	25.002149	120.159570
7.0400	25.006226	120.163850
7.0500	25.013531	120.168337
7.0600	25.023921	120.172289
7.0700	25.037231	120.174916
7.0800	25.053274	120.175390
7.0900	25.071842	120.172846
7.1000	25.092707	120.166385
7.1100	25.115631	120.155087
7.1200	25.140358	120.138006
7.1300	25.166625	120.114183
7.1400	25.194160	120.082647
7.1500	25.222685	120.042422
7.1600	25.251918	119.992537
7.1700	25.281576	119.932026
7.1800	25.311376	119.859939
7.1900	25.341037	119.775349
7.2000	25.370282	119.677362
7.2100	25.398839	119.565120
7.2200	25.426444	119.437813
7.2300	25.452839	119.294685
7.2400	25.477780	119.135047
7.2500	25.501029	118.958277
7.2600	25.522363	118.763832
7.2700	25.541572	118.551256
7.2800	25.558459	118.320182
7.2900	25.572842	118.070341
7.3000	25.584556	117.801559
7.3100	25.593449	117.513770
7.3200	25.599389	117.207008
7.3300	25.602259	116.881410
7.3400	25.601961	116.537219
7.3500	25.598412	116.174774
7.3600	25.591549	115.794513
7.3700	25.581325	115.396964
7.3800	25.567711	114.982741
7.3900	25.550696	114.552540
7.4000	25.530283	114.107125
7.4100	25.506493	113.647329
7.4200	25.479360	113.174037
7.4300	25.448935	112.688185
7.4400	25.415278	112.190741
7.4500	25.378467	111.682707
7.4600	25.338586	111.165097
7.4700	25.295731	110.638935
7.4800	25.250010	110.105243
7.4900	25.201534	109.565029
7.5000	25.150427	109.019275
7.5100	25.096816	108.468935
7.5200	25.040835	107.914914
7.5300	24.982625	107.358067
7.5400	24.922331	106.799188
7.5500	24.860102	106.238995
7.5600	24.796093	105.678131
7.5700	24.730460	105.117151
7.5800	24.663364	104.556515
7.5900	24.594968	103.996586
7.6000	24.525437	103.437625
7.6100	24.454938	102.879787
7.6200	24.383638	102.323121
7.6300	24.311702	101.767572
7.6400	24.239298	101.212978
7.6500	24.166587	100.659083
7.6600	24.093730	100.105534
7.6700	24.020883	99.551895
7.6800	23.948196	98.997652
7.6900	23.875813	98.442229
7.7000	23.803868	97.884995
7.7100	23.732490	97.325280
7.7200	23.661795	96.762391
7.7300	23.591888	96.195622
7.7400	23.522862	95.624272
7.7500	23.454798	95.047662
7.7600	23.387763	94.465142
7.7700	23.321809	93.876115
7.7800	23.256974	93.280040
7.7900	23.193281	92.676450
7.8000	23.130740	92.064957
7.8100	23.069344	91.445265
7.8200	23.009078	90.817173
7.8300	22.949909	90.180578
7.8400	22.891798	89.535480
7.8500	22.834692	88.881978
7.8600	22.778534	88.220272
7.8700	22.723258	87.550656
7.8800	22.668795	86.873512
7.8900	22.615074	86.189303
7.9000	22.562022	85.498566
7.9100	22.509567	84.801897
7.9200	22.457641	84.099943
7.9300	22.406180	83.393390
7.9400	22.355126	82.682948
7.9500	22.304427	81.969339
7.9600	22.254040	81.253283
7.9700	22.203929	80.535487
7.9800	22.154067	79.816626
7.9900	22.104436	79.097338
8.0000	22.055027	78.378205
8.0100	22.005837	77.659748
8.0200	21.956873	76.942411
8.0300	21.908147	76.226560
8.0400	21.859678	75.512470
8.0500	21.811487	74.800326
8.0600	21.763601	74.090214
8.0700	21.716050	73.382131
8.0800	21.668864	72.675975
8.0900	21.622073	71.971560
8.1000	21.575707	71.268616
8.1100	21.529795	70.566802
8.1200	21.484360	69.865712
8.1300	21.439426	69.164893
8.1400	21.395007	68.463858
8.1500	21.351116	67.762098
8.1600	21.307757	67.059104
8.1700	21.264929	66.354379
8.1800	21.222625	65.647455
8.1900	21.180830	64.937914
8.2000	21.139525	64.225395
8.2100	21.098682	63.509615
8.2200	21.058270	62.790379
8.2300	21.018253	62.067591
8.2400	20.978592	61.341261
8.2500	20.939245	60.611516
8.2600	20.900167	59.878603
8.2700	20.861314	59.142890
8.2800	20.822643	58.404867
8.2900	20.784111	57.665144
8.3000	20.745678	56.924445
8.3100	20.707308	56.183603
8.3200	20.668970	55.443547
8.3300	20.630636	54.705294
8.3400	20.592286	53.969933
8.3500	20.553907	53.238614
8.3600	20.515489	52.512530
8.3700	20.477034	51.792898
8.3800	20.438547	51.080946
8.3900	20.400042	50.377895
8.4000	20.361537	49.684940
8.4100	20.323058	49.003236
8.4200	20.284632	48.333881
8.4300	20.246291	47.677905
8.4400	20.208070	47.036254
8.4500	20.170002	46.409780
8.4600	20.132120	45.799232
8.4700	20.094454	45.205249
8.4800	20.057030	44.628355
8.4900	20.019867	44.068955
8.5000	19.982979	43.527332
8.5100	19.946370	43.003651
8.5200	19.910036	42.497958
8.5300	19.873964	42.010186
8.5400	19.838129	41.540157
8.5500	19.802498	41.087592
8.5600	19.767027	40.652118
8.5700	19.731663	40.233270
8.5800	19.696345	39.830510
8.5900	19.661001	39.443227
8.6000	19.625557	39.070755
8.6100	19.589930	38.712375
8.6200	19.554034	38.367333
8.6300	19.517780	38.034842
